<?xml version="1.0" encoding="utf-8"?><svg width="50" height="50" viewBox="0 0 50 50" xmlns="http://www.w3.org/2000/svg" xmlns:xlink="http://www.w3.org/1999/xlink"><svg viewBox="0 0 50 50" width="50" height="50" id="svg_shake_phone" xmlns="http://www.w3.org/2000/svg"><path d="M28.781 2.031a3.76 3.76 0 00-.75.125l-17.625 5c-1.98.563-3.156 2.645-2.594 4.625l8.25 29a.918.918 0 00.094.282l1.188 4.218c.562 1.98 2.644 3.125 4.625 2.563l17.625-5c1.98-.563 3.156-2.645 2.593-4.625l-1.156-4.063a1.01 1.01 0 00-.187-.656L32.656 4.719a3.73 3.73 0 00-3.125-2.688 3.701 3.701 0 00-.75 0zM28.938 4a1.752 1.752 0 011.812 1.281l7.969 28.125-21 5.938L9.75 11.219a1.738 1.738 0 011.219-2.156l17.625-5c.117-.036.226-.055.343-.063zm9.25 6.656a1.001 1.001 0 00-.782 1.313l5 17.625a1.008 1.008 0 101.938-.563l-5-17.625a1 1 0 00-.969-.75h-.187zm5.656 3.156a1.001 1.001 0 00-.782 1.313l2.5 8.813a1.008 1.008 0 101.938-.563L45 14.562a1 1 0 00-.969-.75h-.187zM6.53 19.657a.88.88 0 00-.093.032 1.001 1.001 0 00-.782 1.28l5 17.626a1.008 1.008 0 101.938-.563l-5-17.625a1 1 0 00-.969-.75h-.094zm-3.156 5.657a.88.88 0 00-.094.03 1.001 1.001 0 00-.781 1.282L5 35.438a1.008 1.008 0 101.938-.563l-2.5-8.813a1 1 0 00-.97-.75h-.093zm35.906 10.03l.969 3.438a1.738 1.738 0 01-1.219 2.157l-17.625 5a1.738 1.738 0 01-2.156-1.22l-.969-3.437zM29.406 39.5c-.09.008-.191.004-.281.031-.73.207-1.145.989-.938 1.719.208.73.958 1.145 1.688.938a1.358 1.358 0 00.938-1.688 1.357 1.357 0 00-1.407-1z"/></svg></svg>