<svg xmlns="http://www.w3.org/2000/svg" viewBox="0 0 50 50">
  <path d="M43 0C41.394 0 38.998156 0.51942188 37.535156 1.9824219L32.757812 6.7597656 A 1.0001 1.0001 0 0 0 32.037109 6.4667969 A 1.0001 1.0001 0 0 0 31.34375 6.7597656L30.138672 7.9648438C29.837801 8.0014108 28.648327 8.1292386 26.837891 8.6230469C24.814207 9.1750197 22.387994 10.058688 20.738281 11.708984 A 1.0001 1.0001 0 0 0 20.736328 11.710938C18.195328 9.1699375 15.785609 8.9178437 13.849609 8.7148438C13.492609 8.6778437 13.138109 8.6418906 12.787109 8.5878906L12.251953 8.5039062C11.787953 8.4269062 11.324672 8.3867188 10.888672 8.3867188C8.9176719 8.3867188 7.7012969 9.1883281 7.0292969 9.8613281L1.9199219 14.972656C-0.18007813 17.072656 -0.18007812 20.489844 1.9199219 22.589844L5.8867188 26.558594L4.4726562 27.974609L4.4707031 27.972656L3.0566406 29.384766C-1.4973594 33.933766 -0.81748437 42.218094 4.6035156 48.246094L6.0136719 49.814453L7.5039062 48.324219L8.9140625 46.914062L10.232422 45.595703L9.0078125 44.1875C5.2388125 39.8555 6.1027812 34.828719 7.3007812 33.636719L7.3066406 33.632812L14.666016 40.992188C15.829089 42.15526 17.74513 42.15526 18.908203 40.992188L31.636719 28.265625L35.173828 24.728516 A 1.0001 1.0001 0 0 0 35.464844 24.060547L35.865234 13.552734L37.001953 12.416016 A 1.0001 1.0001 0 0 0 37.001953 11.001953L41.777344 6.2246094C41.927344 6.0756094 42.165328 6 42.486328 6L48 6L50 6L50 4L50 2L50 0L48 0L43 0 z M 43 2L48 2L48 4L42.486328 4C41.685328 4 40.932234 4.2435469 40.365234 4.8105469L35.587891 9.5878906L34.173828 8.1738281L38.951172 3.3964844C39.895172 2.4514844 41.665 2 43 2 z M 32.050781 8.8808594L32.757812 9.5878906L34.878906 11.708984L34.173828 12.416016 A 1.0001 1.0001 0 0 0 33.880859 13.085938L33.482422 23.591797L30.929688 26.144531L23.574219 18.792969C23.570598 18.789312 23.568095 18.784892 23.564453 18.78125L20.070312 15.289062L22.154297 13.123047C23.332818 11.944858 25.500461 11.061363 27.365234 10.552734C29.230551 10.043957 30.748047 9.8730469 30.748047 9.8730469 A 1.0001 1.0001 0 0 0 31.34375 9.5878906L32.050781 8.8808594 z M 10.888672 10.386719C11.218672 10.386719 11.571312 10.417516 11.945312 10.478516L12.482422 10.5625C14.617422 10.8925 16.836219 10.636047 19.324219 13.123047L17.261719 15.302734L17.902344 15.943359 A 1.0001 1.0001 0 0 0 17.964844 16.013672L22.164062 20.210938C22.538659 20.602094 22.537163 21.223589 22.152344 21.607422C21.957344 21.802422 21.701312 21.900391 21.445312 21.900391C21.189312 21.900391 20.933281 21.802422 20.738281 21.607422L19.324219 20.193359C19.129219 19.998359 18.873188 19.900391 18.617188 19.900391C18.361187 19.900391 18.105156 19.998359 17.910156 20.193359C17.520156 20.583359 17.520156 21.217422 17.910156 21.607422L20.03125 23.728516C20.42125 24.118516 20.42125 24.753578 20.03125 25.142578C19.83625 25.337578 19.580219 25.435547 19.324219 25.435547C19.068219 25.435547 18.812187 25.337578 18.617188 25.142578L16.496094 23.021484C16.301094 22.826484 16.045063 22.728516 15.789062 22.728516C15.533062 22.728516 15.277031 22.826484 15.082031 23.021484C14.692031 23.411484 14.692031 24.045547 15.082031 24.435547L16.496094 25.849609C16.886094 26.239609 16.886094 26.874672 16.496094 27.263672C16.301094 27.458672 16.045063 27.556641 15.789062 27.556641C15.533062 27.556641 15.277031 27.458672 15.082031 27.263672L13.667969 25.849609C13.472969 25.654609 13.216938 25.556641 12.960938 25.556641C12.704937 25.556641 12.448906 25.654609 12.253906 25.849609C11.863906 26.239609 11.863906 26.873672 12.253906 27.263672L12.960938 27.970703C13.350938 28.360703 13.350938 28.995766 12.960938 29.384766C12.765937 29.579766 12.509906 29.677734 12.253906 29.677734C11.997906 29.677734 11.741875 29.579766 11.546875 29.384766L3.3359375 21.173828C2.0159375 19.853828 2.0159375 17.702813 3.3359375 16.382812L8.4453125 11.273438C9.0353125 10.684437 9.8546719 10.386719 10.888672 10.386719 z M 24.142578 22.1875L26.6875 24.730469L16.789062 34.628906L13.539062 31.378906C13.842842 31.233806 14.12812 31.047662 14.373047 30.802734C14.743047 30.432734 15.004625 29.981234 15.140625 29.490234C15.350625 29.536234 15.567109 29.558594 15.787109 29.558594C16.589109 29.558594 17.342203 29.247641 17.908203 28.681641C18.286203 28.303641 18.541781 27.848187 18.675781 27.367188C18.885781 27.413187 19.102266 27.4375 19.322266 27.4375C20.124266 27.4375 20.877359 27.124594 21.443359 26.558594C22.009359 25.992594 22.320312 25.2385 22.320312 24.4375C22.320312 24.2175 22.297953 24.002969 22.251953 23.792969C22.743953 23.655969 23.194453 23.393438 23.564453 23.023438C23.81002 22.77787 23.997373 22.492329 24.142578 22.1875 z M 28.101562 26.144531L29.515625 27.558594L17.494141 39.578125C17.095214 39.977052 16.480958 39.977052 16.082031 39.578125L5.8886719 29.386719L7.3007812 27.972656L9.4238281 30.09375L10.130859 30.802734C10.133852 30.805727 10.137621 30.807568 10.140625 30.810547L16.787109 37.458984L28.101562 26.144531 z M 4.4707031 30.800781L5.890625 32.220703C3.860625 34.240703 3.15 40.5 7.5 45.5L6.0898438 46.910156C1.4498438 41.750156 0.67270312 34.594781 4.4707031 30.800781 z" />
</svg>