<svg xmlns="http://www.w3.org/2000/svg" viewBox="0 0 50 50">
  <path d="M21 2L21 5L23 5L23 6.0976562C12.350316 7.1074364 4 16.088822 4 27C4 38.586135 13.413865 48 25 48C36.586135 48 46 38.586135 46 27C46 16.088822 37.649684 7.1074364 27 6.0976562L27 5L29 5L29 2L21 2 z M 40.236328 5.1464844L38.230469 7.1523438L42.845703 11.767578L44.851562 9.7617188L40.236328 5.1464844 z M 25 8C35.505255 8 44 16.494745 44 27C44 37.505255 35.505255 46 25 46C14.494745 46 6 37.505255 6 27C6 16.494745 14.494745 8 25 8 z M 14.990234 15.990234 A 1.0001 1.0001 0 0 0 14.292969 17.707031L23.070312 26.484375 A 2 2 0 0 0 23 27 A 2 2 0 0 0 25 29 A 2 2 0 0 0 25.517578 28.931641L27.292969 30.707031 A 1.0001 1.0001 0 1 0 28.707031 29.292969L26.929688 27.515625 A 2 2 0 0 0 27 27 A 2 2 0 0 0 25 25 A 2 2 0 0 0 24.482422 25.068359L15.707031 16.292969 A 1.0001 1.0001 0 0 0 14.990234 15.990234 z"  />
</svg>